<svg xmlns="http://www.w3.org/2000/svg" xmlns:xlink="http://www.w3.org/1999/xlink" width="500" zoomAndPan="magnify" viewBox="0 0 375 374.999991" height="500" preserveAspectRatio="xMidYMid meet" version="1.0"><defs><clipPath id="72cf083996"><path d="M 0 41.921875 L 375 41.921875 L 375 332.921875 L 0 332.921875 Z M 0 41.921875 " clip-rule="nonzero"/></clipPath></defs><g clip-path="url(#72cf083996)"><path fill="#ffffff" d="M 49.492188 332.921875 C 45.324219 332.921875 42.007812 329.523438 42.007812 325.441406 C 42.007812 303.941406 43.199219 287.453125 47.535156 274.023438 L 7.484375 274.023438 C 3.402344 274.023438 0.00390625 270.625 0.00390625 266.546875 C 0.00390625 246.660156 2.042969 234.589844 11.652344 224.988281 C 19.898438 216.742188 33.082031 211.472656 55.1875 205.355469 C 47.707031 199.828125 42.09375 189.972656 39.457031 178.921875 C 37.585938 171.273438 37.078125 163.03125 38.097656 155.125 C 39.203125 146.96875 42.09375 139.0625 47.027344 132.859375 C 53.574219 124.53125 63.523438 119.175781 77.46875 119.175781 C 91.414062 119.175781 101.363281 124.53125 107.910156 132.859375 C 112.839844 139.0625 115.730469 146.96875 116.835938 155.125 C 117.941406 163.03125 117.347656 171.273438 115.476562 178.921875 C 112.839844 189.972656 107.3125 199.828125 99.832031 205.355469 C 105.867188 206.96875 111.3125 208.667969 116.074219 210.285156 C 121.597656 212.152344 126.277344 214.023438 130.359375 216.0625 C 137.160156 213.9375 144.558594 211.898438 152.464844 209.6875 L 152.464844 201.871094 C 136.820312 193.199219 125 173.484375 119.558594 150.875 C 116.074219 136.683594 115.050781 121.300781 117.007812 106.597656 C 119.046875 91.640625 124.234375 77.445312 133.164062 66.144531 C 144.8125 51.527344 162.5 41.921875 187.5 41.921875 C 212.5 41.921875 230.1875 51.527344 241.835938 66.144531 C 250.765625 77.445312 255.953125 91.640625 257.992188 106.597656 C 259.949219 121.300781 258.925781 136.683594 255.441406 150.875 C 250 173.484375 238.179688 193.199219 222.535156 201.871094 L 222.535156 209.6875 C 230.441406 211.898438 237.839844 213.9375 244.640625 216.0625 C 248.722656 214.023438 253.398438 212.152344 258.925781 210.285156 C 263.6875 208.667969 269.132812 207.054688 275.167969 205.355469 C 267.6875 199.828125 262.160156 189.972656 259.523438 178.921875 C 257.652344 171.273438 257.058594 163.03125 258.164062 155.125 C 259.269531 146.96875 262.160156 139.0625 267.089844 132.859375 C 273.636719 124.53125 283.585938 119.175781 297.53125 119.175781 C 311.476562 119.175781 321.425781 124.53125 327.972656 132.859375 C 332.90625 139.0625 335.796875 146.96875 336.902344 155.125 C 337.921875 163.03125 337.414062 171.273438 335.542969 178.921875 C 332.90625 189.972656 327.292969 199.828125 319.8125 205.355469 C 341.917969 211.472656 355.101562 216.742188 363.347656 224.988281 C 372.957031 234.589844 374.996094 246.660156 374.996094 266.546875 C 374.996094 270.625 371.597656 274.023438 367.515625 274.023438 L 327.464844 274.023438 C 331.800781 287.453125 332.992188 303.941406 332.992188 325.441406 C 332.992188 329.523438 329.675781 332.921875 325.507812 332.921875 Z M 317.941406 317.878906 C 317.601562 297.226562 315.816406 282.355469 310.03125 270.964844 C 309.605469 270.371094 309.265625 269.691406 309.011719 269.011719 C 307.054688 265.441406 304.589844 262.125 301.527344 259.152344 C 287.328125 244.957031 260.714844 235.441406 213.433594 222.777344 C 210.035156 222.097656 207.484375 219.039062 207.484375 215.46875 L 207.484375 197.109375 C 207.484375 194.136719 209.351562 191.332031 212.246094 190.140625 C 225.59375 184.957031 235.96875 167.789062 240.902344 147.390625 C 243.960938 134.898438 244.898438 121.386719 243.113281 108.636719 C 241.496094 96.230469 237.328125 84.5 230.101562 75.492188 C 221.171875 64.273438 207.398438 56.964844 187.5 56.964844 C 167.601562 56.964844 153.828125 64.273438 144.898438 75.492188 C 137.671875 84.5 133.503906 96.230469 131.886719 108.636719 C 130.101562 121.386719 131.039062 134.898438 134.097656 147.390625 C 138.945312 167.621094 149.234375 184.617188 162.332031 189.972656 C 165.304688 190.992188 167.515625 193.796875 167.515625 197.109375 L 167.515625 215.46875 C 167.515625 218.78125 165.304688 221.757812 161.90625 222.691406 C 114.371094 235.441406 87.671875 244.875 73.472656 259.152344 C 70.410156 262.125 67.945312 265.441406 65.988281 269.011719 C 65.734375 269.691406 65.394531 270.371094 64.96875 270.878906 C 59.183594 282.355469 57.398438 297.226562 57.058594 317.878906 Z M 54.421875 258.980469 C 56.804688 255.328125 59.527344 251.84375 62.84375 248.613281 C 72.875 238.585938 87.160156 230.851562 107.996094 223.371094 C 102.636719 221.671875 96.515625 219.886719 89.457031 218.015625 C 86.140625 217.082031 83.929688 214.109375 83.929688 210.792969 L 83.929688 201.53125 C 83.929688 198.214844 86.054688 195.410156 89.03125 194.390625 C 94.472656 192.011719 98.8125 184.445312 100.9375 175.4375 C 102.382812 169.488281 102.808594 163.113281 102.042969 157.164062 C 101.277344 151.472656 99.40625 146.203125 96.175781 142.121094 C 92.347656 137.277344 86.3125 134.132812 77.46875 134.132812 C 68.710938 134.132812 62.585938 137.277344 58.761719 142.121094 C 55.527344 146.203125 53.660156 151.472656 52.894531 157.164062 C 52.128906 163.113281 52.554688 169.488281 54 175.4375 C 56.210938 184.703125 60.714844 192.351562 66.242188 194.5625 C 69.21875 195.664062 71.003906 198.46875 71.003906 201.53125 L 71.003906 210.792969 C 71.003906 214.363281 68.453125 217.421875 65.054688 218.101562 C 41.839844 224.308594 28.914062 228.894531 22.28125 235.523438 C 17.265625 240.539062 15.5625 247.679688 15.136719 258.980469 Z M 267.003906 223.371094 C 287.839844 230.851562 302.125 238.585938 312.15625 248.613281 C 315.472656 251.84375 318.195312 255.328125 320.578125 258.980469 L 359.863281 258.980469 C 359.4375 247.679688 357.734375 240.539062 352.71875 235.523438 C 346.085938 228.894531 333.160156 224.308594 309.945312 218.101562 C 306.546875 217.421875 303.996094 214.363281 303.996094 210.792969 L 303.996094 201.53125 C 303.996094 198.46875 305.78125 195.664062 308.757812 194.5625 C 314.285156 192.351562 318.789062 184.703125 321 175.4375 C 322.445312 169.574219 322.871094 163.113281 322.105469 157.164062 C 321.339844 151.472656 319.472656 146.203125 316.238281 142.121094 C 312.414062 137.277344 306.289062 134.132812 297.53125 134.132812 C 288.6875 134.132812 282.652344 137.277344 278.824219 142.121094 C 275.59375 146.203125 273.722656 151.472656 272.957031 157.164062 C 272.191406 163.113281 272.617188 169.488281 274.0625 175.4375 C 276.1875 184.445312 280.527344 192.011719 285.96875 194.390625 C 288.945312 195.410156 291.070312 198.214844 291.070312 201.53125 L 291.070312 210.792969 C 291.070312 214.109375 288.859375 217.082031 285.542969 218.015625 C 278.484375 219.886719 272.363281 221.671875 267.003906 223.371094 Z M 267.003906 223.371094 " fill-opacity="1" fill-rule="nonzero"/></g></svg>